<svg xmlns="http://www.w3.org/2000/svg" xmlns:xlink="http://www.w3.org/1999/xlink" width="40" zoomAndPan="magnify" viewBox="0 0 30 30.000001" height="40" preserveAspectRatio="xMidYMid meet" version="1.0"><defs><clipPath id="77eba6b42b"><path d="M 15 15 L 20.804688 15 L 20.804688 18 L 15 18 Z M 15 15 " clip-rule="nonzero"/></clipPath><clipPath id="62edcca2c8"><path d="M 12 11 L 19 11 L 19 18.050781 L 12 18.050781 Z M 12 11 " clip-rule="nonzero"/></clipPath><clipPath id="234a9ee7ff"><path d="M 13 10.792969 L 14 10.792969 L 14 12 L 13 12 Z M 13 10.792969 " clip-rule="nonzero"/></clipPath><clipPath id="5a7f56b593"><path d="M 9.195312 14 L 15 14 L 15 17 L 9.195312 17 Z M 9.195312 14 " clip-rule="nonzero"/></clipPath></defs><g clip-path="url(#77eba6b42b)"><path fill="#545454" d="M 20.464844 16.03125 C 20.171875 15.960938 19.480469 16.15625 19.40625 15.921875 C 19.207031 15.304688 18.625 15.117188 18.320312 15.441406 C 18.199219 15.570312 18.140625 15.8125 17.957031 15.851562 C 17.675781 15.910156 17.398438 15.628906 17.105469 15.777344 C 16.90625 15.875 17.039062 16.15625 16.859375 16.261719 C 16.632812 16.398438 15.96875 16.167969 15.933594 16.628906 C 15.90625 16.996094 16.578125 17.078125 16.882812 17.039062 C 17.015625 17.019531 17.171875 16.921875 17.300781 16.941406 C 17.527344 16.972656 17.613281 17.242188 17.882812 17.242188 C 18.1875 17.242188 18.339844 16.902344 18.671875 16.972656 C 19.070312 17.058594 19.210938 17.410156 19.71875 17.273438 C 19.914062 17.222656 19.992188 17.007812 20.15625 16.90625 C 20.351562 16.789062 20.742188 16.738281 20.777344 16.496094 C 20.808594 16.28125 20.695312 16.089844 20.464844 16.03125 Z M 20.464844 16.03125 " fill-opacity="1" fill-rule="evenodd"/></g><g clip-path="url(#62edcca2c8)"><path fill="#cb6ce6" d="M 14.894531 11.550781 C 14.238281 12.0625 13.8125 12.851562 13.8125 13.738281 C 13.8125 15.277344 15.097656 16.53125 16.675781 16.53125 C 17.488281 16.53125 18.226562 16.195312 18.746094 15.664062 C 18.347656 17.039062 17.050781 18.050781 15.511719 18.050781 C 13.660156 18.050781 12.152344 16.582031 12.152344 14.773438 C 12.152344 13.171875 13.335938 11.835938 14.894531 11.550781 Z M 14.894531 11.550781 " fill-opacity="1" fill-rule="evenodd"/></g><path fill="#cb6ce6" d="M 16.039062 11.722656 C 16.042969 11.714844 16.050781 11.710938 16.058594 11.710938 C 16.066406 11.710938 16.074219 11.714844 16.078125 11.722656 L 16.230469 11.964844 L 16.515625 12.03125 C 16.523438 12.03125 16.53125 12.039062 16.53125 12.046875 C 16.535156 12.054688 16.53125 12.0625 16.527344 12.066406 L 16.335938 12.285156 L 16.359375 12.570312 C 16.363281 12.578125 16.359375 12.585938 16.351562 12.589844 C 16.34375 12.59375 16.335938 12.59375 16.328125 12.59375 L 16.058594 12.484375 L 15.789062 12.59375 C 15.78125 12.59375 15.773438 12.59375 15.765625 12.589844 C 15.757812 12.585938 15.753906 12.578125 15.753906 12.570312 L 15.777344 12.285156 L 15.589844 12.066406 C 15.582031 12.0625 15.582031 12.054688 15.585938 12.046875 C 15.585938 12.039062 15.59375 12.03125 15.601562 12.03125 L 15.886719 11.964844 Z M 16.039062 11.722656 " fill-opacity="1" fill-rule="evenodd"/><path fill="#cb6ce6" d="M 17.269531 13.652344 C 17.269531 13.648438 17.273438 13.648438 17.277344 13.648438 C 17.285156 13.648438 17.289062 13.648438 17.289062 13.652344 L 17.371094 13.785156 L 17.523438 13.820312 C 17.53125 13.820312 17.535156 13.824219 17.535156 13.828125 C 17.535156 13.832031 17.535156 13.835938 17.53125 13.839844 L 17.429688 13.957031 L 17.441406 14.109375 C 17.441406 14.113281 17.441406 14.117188 17.4375 14.121094 C 17.433594 14.125 17.429688 14.125 17.425781 14.121094 L 17.277344 14.0625 L 17.132812 14.121094 C 17.128906 14.125 17.125 14.125 17.121094 14.121094 C 17.117188 14.117188 17.113281 14.113281 17.117188 14.109375 L 17.128906 13.957031 L 17.027344 13.839844 C 17.023438 13.835938 17.023438 13.832031 17.023438 13.828125 C 17.023438 13.824219 17.027344 13.820312 17.03125 13.820312 L 17.183594 13.785156 Z M 17.269531 13.652344 " fill-opacity="1" fill-rule="evenodd"/><path fill="#cb6ce6" d="M 18.160156 12.144531 L 18.050781 12.320312 C 18.050781 12.320312 17.847656 12.367188 17.847656 12.367188 C 17.832031 12.371094 17.820312 12.382812 17.816406 12.394531 C 17.808594 12.410156 17.8125 12.425781 17.824219 12.4375 C 17.824219 12.4375 17.957031 12.59375 17.957031 12.59375 C 17.957031 12.59375 17.941406 12.796875 17.941406 12.796875 C 17.941406 12.8125 17.949219 12.824219 17.960938 12.835938 C 17.972656 12.84375 17.992188 12.847656 18.003906 12.839844 C 18.003906 12.839844 18.199219 12.761719 18.199219 12.761719 C 18.199219 12.761719 18.390625 12.839844 18.390625 12.839844 C 18.40625 12.847656 18.421875 12.84375 18.433594 12.835938 C 18.445312 12.824219 18.453125 12.8125 18.453125 12.796875 C 18.453125 12.796875 18.4375 12.59375 18.4375 12.59375 C 18.4375 12.59375 18.570312 12.4375 18.570312 12.4375 C 18.582031 12.425781 18.585938 12.410156 18.582031 12.394531 C 18.574219 12.382812 18.5625 12.371094 18.546875 12.367188 C 18.546875 12.367188 18.34375 12.320312 18.34375 12.320312 C 18.34375 12.320312 18.238281 12.144531 18.238281 12.144531 C 18.226562 12.132812 18.214844 12.125 18.199219 12.125 C 18.183594 12.125 18.167969 12.132812 18.160156 12.144531 Z M 18.199219 12.1875 L 18.304688 12.355469 C 18.308594 12.363281 18.3125 12.367188 18.320312 12.371094 L 18.519531 12.414062 L 18.386719 12.566406 C 18.382812 12.570312 18.378906 12.578125 18.378906 12.585938 L 18.394531 12.785156 L 18.207031 12.707031 C 18.203125 12.703125 18.195312 12.703125 18.1875 12.707031 L 18 12.785156 L 18.015625 12.585938 C 18.015625 12.578125 18.011719 12.570312 18.007812 12.566406 L 17.875 12.414062 L 18.074219 12.371094 C 18.082031 12.367188 18.085938 12.363281 18.089844 12.355469 Z M 18.199219 12.1875 " fill-opacity="1" fill-rule="evenodd"/><g clip-path="url(#234a9ee7ff)"><path fill="#cb6ce6" d="M 13.304688 10.8125 L 13.238281 10.921875 C 13.238281 10.921875 13.109375 10.953125 13.109375 10.953125 C 13.09375 10.953125 13.085938 10.964844 13.078125 10.976562 C 13.074219 10.988281 13.078125 11.003906 13.085938 11.015625 C 13.085938 11.015625 13.171875 11.113281 13.171875 11.113281 C 13.171875 11.113281 13.164062 11.238281 13.164062 11.238281 C 13.160156 11.253906 13.167969 11.265625 13.179688 11.273438 C 13.191406 11.28125 13.203125 11.285156 13.21875 11.277344 C 13.21875 11.277344 13.339844 11.230469 13.339844 11.230469 C 13.339844 11.230469 13.460938 11.277344 13.460938 11.277344 C 13.472656 11.285156 13.488281 11.28125 13.5 11.273438 C 13.511719 11.265625 13.515625 11.253906 13.515625 11.238281 C 13.515625 11.238281 13.503906 11.113281 13.503906 11.113281 C 13.503906 11.113281 13.589844 11.015625 13.589844 11.015625 C 13.597656 11.003906 13.601562 10.988281 13.597656 10.976562 C 13.59375 10.964844 13.582031 10.953125 13.570312 10.953125 C 13.570312 10.953125 13.441406 10.921875 13.441406 10.921875 C 13.441406 10.921875 13.371094 10.8125 13.371094 10.8125 C 13.367188 10.800781 13.351562 10.792969 13.339844 10.792969 C 13.324219 10.792969 13.3125 10.800781 13.304688 10.8125 Z M 13.339844 10.863281 L 13.398438 10.960938 C 13.402344 10.964844 13.410156 10.96875 13.417969 10.972656 L 13.53125 11 L 13.457031 11.085938 C 13.449219 11.089844 13.449219 11.097656 13.449219 11.105469 L 13.457031 11.21875 L 13.351562 11.175781 C 13.34375 11.171875 13.335938 11.171875 13.328125 11.175781 L 13.21875 11.21875 L 13.230469 11.105469 C 13.230469 11.097656 13.226562 11.089844 13.222656 11.085938 L 13.148438 11 L 13.261719 10.972656 C 13.269531 10.96875 13.273438 10.964844 13.277344 10.960938 Z M 13.339844 10.863281 " fill-opacity="1" fill-rule="evenodd"/></g><g clip-path="url(#5a7f56b593)"><path fill="#545454" d="M 13.753906 15.1875 C 13.457031 15.113281 12.769531 15.3125 12.695312 15.074219 C 12.496094 14.457031 11.910156 14.273438 11.605469 14.597656 C 11.484375 14.722656 11.425781 14.964844 11.242188 15.003906 C 10.960938 15.0625 10.683594 14.78125 10.394531 14.929688 C 10.191406 15.03125 10.324219 15.308594 10.144531 15.417969 C 9.921875 15.550781 9.253906 15.320312 9.222656 15.78125 C 9.195312 16.148438 9.867188 16.230469 10.171875 16.191406 C 10.300781 16.171875 10.460938 16.074219 10.585938 16.09375 C 10.8125 16.128906 10.902344 16.394531 11.167969 16.394531 C 11.472656 16.394531 11.628906 16.058594 11.957031 16.128906 C 12.359375 16.214844 12.496094 16.566406 13.003906 16.429688 C 13.203125 16.375 13.277344 16.160156 13.445312 16.0625 C 13.636719 15.941406 14.03125 15.890625 14.0625 15.648438 C 14.09375 15.433594 13.984375 15.242188 13.753906 15.1875 Z M 13.753906 15.1875 " fill-opacity="1" fill-rule="evenodd"/></g></svg>